<svg width="24" height="24" viewBox="0 0 24 24" fill="none" xmlns="http://www.w3.org/2000/svg"><path fill-rule="evenodd" clip-rule="evenodd" d="M16.9628 17.9968C15.3782 19.3459 13.3242 20.16 11.08 20.16C6.06525 20.16 2 16.0947 2 11.08C2 6.06525 6.06525 2 11.08 2C16.0947 2 20.16 6.06525 20.16 11.08C20.16 13.3106 19.3557 15.3533 18.0212 16.934L22.3797 21.2924L21.319 22.3531L16.9628 17.9968ZM18.66 11.08C18.66 15.2663 15.2663 18.66 11.08 18.66C6.89368 18.66 3.5 15.2663 3.5 11.08C3.5 6.89368 6.89368 3.5 11.08 3.5C15.2663 3.5 18.66 6.89368 18.66 11.08Z" fill="black" fill-opacity="0.65"/></svg>
